HIERARCHY
ROOT Hips
{
	OFFSET 0.000000 0.000000 0.000000
	CHANNELS 6 Xposition Yposition Zposition Zrotation Yrotation Xrotation 
	JOINT LHipJoint
	{
		OFFSET 0.000000 0.000000 0.000000
		CHANNELS 3 Zrotation Yrotation Xrotation
		JOINT LeftUpLeg
		{
			OFFSET 1.363060 -1.794630 0.839290
			CHANNELS 3 Zrotation Yrotation Xrotation
			JOINT LeftLeg
			{
				OFFSET 2.448110 -6.726130 0.000000
				CHANNELS 3 Zrotation Yrotation Xrotation
				JOINT LeftFoot
				{
					OFFSET 2.562200 -7.039590 0.000000
					CHANNELS 3 Zrotation Yrotation Xrotation
					JOINT LeftToeBase
					{
						OFFSET 0.157640 -0.433110 2.322550
						CHANNELS 3 Zrotation Yrotation Xrotation
						End Site
						{
							OFFSET 0.000000 0.000000 0.000000
						}
					}
				}
			}
		}
	}
	JOINT RHipJoint
	{
		OFFSET 0.000000 0.000000 0.000000
		CHANNELS 3 Zrotation Yrotation Xrotation
		JOINT RightUpLeg
		{
			OFFSET -1.305520 -1.794630 0.839290
			CHANNELS 3 Zrotation Yrotation Xrotation
			JOINT RightLeg
			{
				OFFSET -2.542530 -6.985550 0.000000
				CHANNELS 3 Zrotation Yrotation Xrotation
				JOINT RightFoot
				{
					OFFSET -2.568260 -7.056230 0.000000
					CHANNELS 3 Zrotation Yrotation Xrotation
					JOINT RightToeBase
					{
						OFFSET -0.164730 -0.452590 2.363150
						CHANNELS 3 Zrotation Yrotation Xrotation
						End Site
						{
							OFFSET 0.000000 0.000000 0.000000
						}
					}
				}
			}
		}
	}
}
MOTION
Frames: 16
Frame Time: 0.008333
1.009292 17.641127 -3.043770 160.884326 68.337703 -178.240360 -9.686190 -0.679410 1.217240 -6.297966 -12.006825 -31.459359 -1.630428 0.421393 19.413124 1.267240 7.667012 -0.683995 1.140200 -0.000001 -31.249800 8.017627 -0.345138 -1.103810 10.303688 6.102705 -14.568420 2.042124 -0.107052 13.262832 -0.850331 -2.623385 -6.118122 -0.356700 -0.000000 -10.889900
1.094053 17.647572 -3.047429 161.003735 68.654353 -178.221411 -9.655283 -0.702989 1.222161 -6.441342 -11.849401 -31.740851 -1.667472 0.377197 18.790653 1.243707 7.535036 -0.502144 1.158100 -0.000001 -31.365200 8.005117 -0.389596 -1.112462 10.509126 6.169645 -13.987805 2.070745 -0.094968 12.937668 -0.792995 -2.415500 -5.794237 -0.366701 0.000000 -11.092300
1.179843 17.653510 -3.051120 161.089524 68.975166 -178.223840 -9.621665 -0.724223 1.230644 -6.598962 -11.711396 -32.046006 -1.708079 0.334956 18.196046 1.211506 7.349154 -0.308640 1.168900 -0.000000 -31.499900 7.996304 -0.431785 -1.119744 10.695338 6.225876 -13.405818 2.099842 -0.080235 12.592165 -0.733338 -2.189227 -5.478567 -0.372500 -0.000000 -11.297200
1.266493 17.658972 -3.054758 161.147931 69.299260 -178.248130 -9.585868 -0.744254 1.239322 -6.767885 -11.591958 -32.362919 -1.752060 0.294896 17.627581 1.171529 7.114030 -0.111594 1.171400 0.000001 -31.677901 7.989534 -0.471351 -1.127802 10.865351 6.279319 -12.805291 2.128602 -0.062747 12.214181 -0.672596 -1.955510 -5.156408 -0.376000 -0.000000 -11.538700
1.354235 17.663753 -3.058315 161.159302 69.622613 -178.305886 -9.545109 -0.761562 1.254816 -6.952012 -11.507009 -32.700878 -1.799478 0.255416 17.085523 1.126751 6.846540 0.074598 1.166400 0.000000 -31.857700 7.989284 -0.508133 -1.137422 11.008038 6.307234 -12.217061 2.157345 -0.045126 11.836937 -0.607151 -1.689475 -4.839358 -0.373800 0.000000 -11.794900
1.443036 17.667811 -3.061814 161.127839 69.946229 -178.392599 -9.499337 -0.776921 1.277409 -7.146362 -11.458518 -33.057503 -1.849749 0.215677 16.566605 1.079128 6.557436 0.237970 1.153700 0.000001 -32.030000 7.994980 -0.542489 -1.149261 11.125890 6.310542 -11.646989 2.185939 -0.028383 11.469390 -0.537275 -1.391900 -4.525603 -0.365801 0.000000 -12.057900
1.532696 17.671135 -3.065328 161.063463 70.273508 -178.502087 -9.449426 -0.791679 1.304742 -7.344412 -11.442952 -33.422942 -1.902041 0.175059 16.063797 1.030194 6.255838 0.371439 1.134200 0.000000 -32.205299 8.004537 -0.574795 -1.163968 11.224777 6.299267 -11.088336 2.213844 -0.012981 11.109765 -0.464649 -1.073762 -4.206620 -0.353300 0.000000 -12.346100
1.623080 17.673705 -3.068972 160.973775 70.608305 -178.627028 -9.396001 -0.806793 1.336482 -7.539843 -11.458152 -33.794169 -1.955382 0.132773 15.571447 0.981432 5.950968 0.471185 1.109100 -0.000000 -32.377000 8.016769 -0.605632 -1.181610 11.309659 6.276984 -10.547308 2.241208 0.000104 10.767991 -0.389929 -0.737387 -3.883560 -0.336101 -0.000000 -12.654400
1.714219 17.675437 -3.073009 160.869264 70.956177 -178.751316 -9.339850 -0.822818 1.374579 -7.724348 -11.501720 -34.178622 -2.008555 0.088074 15.087302 0.933986 5.649920 0.537025 1.080199 0.000000 -32.524900 8.030735 -0.636178 -1.200384 11.386013 6.245285 -10.042400 2.268890 0.009907 10.463053 -0.313137 -0.378839 -3.567224 -0.312999 -0.000000 -12.934800
1.806018 17.676305 -3.077604 160.762583 71.323471 -178.862877 -9.282684 -0.840855 1.417159 -7.890525 -11.564861 -34.575049 -2.060373 0.041075 14.608238 0.888080 5.355442 0.577029 1.049000 0.000000 -32.651400 8.044242 -0.667168 -1.219417 11.461659 6.213579 -9.574053 2.297257 0.016275 10.197994 -0.235501 -0.004221 -3.259606 -0.284600 0.000000 -13.179300
1.898254 17.676328 -3.082821 160.665874 71.716547 -178.954332 -9.226621 -0.862052 1.459990 -8.033725 -11.635316 -34.976419 -2.109809 -0.007421 14.131931 0.843266 5.066987 0.604913 1.017100 -0.000000 -32.773800 8.054754 -0.698939 -1.238681 11.544805 6.193850 -9.130909 2.326397 0.019578 9.965312 -0.158712 0.375429 -2.957181 -0.252299 0.000000 -13.404400
1.990858 17.675481 -3.088783 160.589190 72.140374 -179.015800 -9.173339 -0.886814 1.501353 -8.150686 -11.703168 -35.386057 -2.155963 -0.056397 13.661443 0.798964 4.782946 0.635638 0.985600 -0.000000 -32.895400 8.060858 -0.732007 -1.256968 11.640867 6.192471 -8.712518 2.356849 0.020128 9.765444 -0.083399 0.757236 -2.664605 -0.216300 0.000000 -13.596700
2.083963 17.673685 -3.095544 160.530857 72.597678 -179.046328 -9.123429 -0.914591 1.541156 -8.242861 -11.762144 -35.811793 -2.198569 -0.104764 13.202996 0.754637 4.502013 0.683272 0.955600 -0.000000 -33.006500 8.063143 -0.766533 -1.273329 11.749505 6.207502 -8.325569 2.389084 0.017910 9.604708 -0.009017 1.146758 -2.390576 -0.176100 -0.000000 -13.736200
2.177595 17.670932 -3.102989 160.489629 73.089222 -179.049271 -9.077617 -0.945033 1.577072 -8.313977 -11.804829 -36.254416 -2.237662 -0.150970 12.763634 0.709470 4.220816 0.760015 0.927300 0.000000 -33.117700 8.061535 -0.802246 -1.287737 11.870883 6.241480 -7.961485 2.422959 0.013598 9.475794 0.063970 1.540778 -2.135693 -0.132300 0.000001 -13.829300
2.271847 17.667172 -3.110989 160.455216 73.612583 -179.035647 -9.035534 -0.977103 1.608578 -8.370907 -11.829099 -36.716978 -2.273798 -0.193795 12.351444 0.663062 3.937766 0.872530 0.900800 0.000000 -33.232200 8.057544 -0.838613 -1.300622 12.000367 6.289479 -7.617709 2.458198 0.007472 9.377141 0.135898 1.942229 -1.903716 -0.084800 0.000000 -13.874299
2.366863 17.662352 -3.119382 160.413631 74.163300 -179.019917 -8.996130 -1.009751 1.635750 -8.421296 -11.836409 -37.202406 -2.307906 -0.232399 11.974477 0.615273 3.651465 1.019098 0.875200 -0.000000 -33.350200 8.052955 -0.874860 -1.312562 12.131720 6.345991 -7.291462 2.494252 -0.000093 9.305821 0.206942 2.352862 -1.697431 -0.033800 -0.000000 -13.872400
